<svg  xmlns="http://www.w3.org/2000/svg"
 width="20.03" height="20" viewBox="0 0 20.03 20">
<path style="fill: #fff" d="M11.7,9.681 C11.745,8.673 12.187,7.435 12.187,6.93 C12.187,2.733 9.453,0.0 6.93,0.0 C2.733,0.0 0.0,2.733 0.0,6.93 C0.0,9.453 2.733,12.186 6.93,12.186 C7.435,12.186 8.673,11.745 9.681,11.7 L13.674,14.999 L14.999,13.673 L11.7,9.681 L11.7,9.681 ZM6.93,10.311 C3.767,10.311 1.874,8.419 1.874,6.93 C1.874,3.766 3.767,1.874 6.93,1.874 C8.419,1.874 10.312,3.766 10.312,6.93 C10.312,8.419 8.419,10.311 6.93,10.311 L6.93,10.311 Z"/>
</svg>